<svg width="14" height="13" viewBox="0 0 14 13" fill="none" xmlns="http://www.w3.org/2000/svg">
<path fill-rule="evenodd" clip-rule="evenodd" d="M7.0006 0.0999756C5.26245 0.0999756 5.04431 0.107576 4.36164 0.138643C3.6803 0.169843 3.21523 0.277711 2.80829 0.435979C2.38735 0.599447 2.03028 0.818116 1.67454 1.17399C1.31854 1.52972 1.09987 1.88679 0.935868 2.3076C0.7772 2.71467 0.669199 3.17987 0.638532 3.86095C0.607998 4.54362 0.599998 4.76189 0.599998 6.50004C0.599998 8.23819 0.607731 8.45566 0.638665 9.13834C0.669999 9.81968 0.777867 10.2847 0.936002 10.6917C1.0996 11.1126 1.31827 11.4697 1.67414 11.8254C2.02975 12.1814 2.38682 12.4006 2.80749 12.5641C3.21469 12.7224 3.6799 12.8302 4.3611 12.8614C5.04378 12.8925 5.26178 12.9001 6.9998 12.9001C8.73808 12.9001 8.95555 12.8925 9.63823 12.8614C10.3196 12.8302 10.7852 12.7224 11.1924 12.5641C11.6132 12.4006 11.9697 12.1814 12.3253 11.8254C12.6813 11.4697 12.9 11.1126 13.064 10.6918C13.2213 10.2847 13.3293 9.81954 13.3613 9.13847C13.392 8.4558 13.4 8.23819 13.4 6.50004C13.4 4.76189 13.392 4.54375 13.3613 3.86108C13.3293 3.17974 13.2213 2.71467 13.064 2.30773C12.9 1.88679 12.6813 1.52972 12.3253 1.17399C11.9693 0.817983 11.6133 0.599314 11.192 0.435979C10.784 0.277711 10.3186 0.169843 9.63729 0.138643C8.95462 0.107576 8.73728 0.0999756 6.9986 0.0999756H7.0006ZM6.42643 1.2533C6.59683 1.25304 6.78697 1.2533 7.00057 1.2533C8.70939 1.2533 8.91192 1.25944 9.58673 1.2901C10.2107 1.31864 10.5494 1.4229 10.775 1.51051C11.0737 1.62651 11.2866 1.76517 11.5105 1.98918C11.7345 2.21318 11.8732 2.42652 11.9894 2.72518C12.077 2.95052 12.1814 3.28919 12.2098 3.9132C12.2405 4.58787 12.2472 4.79054 12.2472 6.49856C12.2472 8.20658 12.2405 8.40924 12.2098 9.08392C12.1813 9.70792 12.077 10.0466 11.9894 10.2719C11.8734 10.5706 11.7345 10.7833 11.5105 11.0071C11.2865 11.2311 11.0738 11.3698 10.775 11.4858C10.5497 11.5738 10.2107 11.6778 9.58673 11.7063C8.91206 11.737 8.70939 11.7437 7.00057 11.7437C5.29162 11.7437 5.08908 11.737 4.41441 11.7063C3.7904 11.6775 3.45173 11.5733 3.226 11.4857C2.92733 11.3697 2.71399 11.231 2.48999 11.007C2.26599 10.783 2.12732 10.5702 2.01105 10.2714C1.92345 10.0461 1.81905 9.70739 1.79065 9.08339C1.75998 8.40871 1.75385 8.20604 1.75385 6.49696C1.75385 4.78787 1.75998 4.58627 1.79065 3.9116C1.81918 3.28759 1.92345 2.94892 2.01105 2.72332C2.12705 2.42465 2.26599 2.21131 2.48999 1.98731C2.71399 1.76331 2.92733 1.62464 3.226 1.50837C3.4516 1.42037 3.7904 1.31637 4.41441 1.2877C5.00482 1.26104 5.23362 1.25304 6.42643 1.2517V1.2533ZM10.4169 2.31598C9.99287 2.31598 9.64887 2.65959 9.64887 3.08372C9.64887 3.50773 9.99287 3.85173 10.4169 3.85173C10.8409 3.85173 11.1849 3.50773 11.1849 3.08372C11.1849 2.65972 10.8409 2.31598 10.4169 2.31598ZM7.00061 3.21332C5.18552 3.21332 3.71391 4.68494 3.71391 6.50002C3.71391 8.31511 5.18552 9.78606 7.00061 9.78606C8.8157 9.78606 10.2868 8.31511 10.2868 6.50002C10.2868 4.68494 8.8157 3.21332 7.00061 3.21332ZM7.00058 4.36667C8.17873 4.36667 9.13394 5.32175 9.13394 6.50002C9.13394 7.67817 8.17873 8.63338 7.00058 8.63338C5.82231 8.63338 4.86723 7.67817 4.86723 6.50002C4.86723 5.32175 5.82231 4.36667 7.00058 4.36667Z" fill="#479ED7"/>
</svg>
