<svg width="54" height="54" viewBox="0 0 54 54" fill="none" xmlns="http://www.w3.org/2000/svg">
<path d="M25.7533 0.00471492C34.1373 -0.00454925 40.3093 2.48195 45.4714 7.34194C51.0978 12.6355 53.9683 19.276 53.9997 26.9746C54.0293 33.9875 51.5861 40.2186 46.7717 45.3454C41.4357 51.028 34.8069 53.9889 26.9703 54C20.0326 54.0092 13.9457 51.6302 8.85018 46.9611C3.02408 41.6231 0.0148475 34.8806 5.10322e-05 26.9783C-0.0128959 19.9838 2.43777 13.8139 7.20408 8.66115C12.4753 2.96184 19.7126 -0.137953 25.7533 0.00471492ZM43.4776 26.1945C46.1891 26.1945 48.9024 26.1945 51.6138 26.1945C52.2427 26.1945 52.3277 26.1185 52.2223 25.4923C52.0614 24.5362 52.0817 23.5672 51.8894 22.6056C51.6286 21.2938 51.329 19.9949 50.8943 18.7387C50.4652 17.4992 49.9344 16.2967 49.3167 15.1294C48.3253 13.2599 47.1157 11.5479 45.7063 9.98407C44.3469 8.47402 42.8173 7.14553 41.125 6.0116C40.7809 5.78185 40.4924 5.7837 40.1724 6.0431C39.2884 6.76015 38.3136 7.34379 37.3093 7.86629C35.9111 8.5926 34.4629 9.19477 32.9277 9.60054C31.498 9.97852 30.072 10.312 28.5887 10.3565C27.8359 10.3787 27.8008 10.4343 27.7823 11.1903C27.7397 12.8856 28.0264 14.5698 27.9395 16.2689C27.8988 17.0545 27.9358 17.8438 27.9339 18.6294C27.9284 20.5137 28.7144 22.0942 29.9203 23.456C31.5942 25.3459 33.7711 26.176 36.268 26.189C38.6688 26.2056 41.0732 26.1945 43.4776 26.1945ZM27.786 42.2493C27.786 42.6662 27.7971 43.0831 27.7823 43.4981C27.7712 43.8168 27.908 43.9409 28.2169 43.9446C29.863 43.9613 31.5036 44.0614 33.146 44.1855C34.4647 44.2856 35.7723 44.4857 37.0837 44.6283C38.6059 44.7932 40.1003 45.1805 41.6169 45.4214C42.096 45.4973 42.5991 45.5714 43.0448 45.7549C43.559 45.9661 43.8975 45.8457 44.2729 45.4825C46.104 43.713 47.6761 41.7435 48.9449 39.5368C49.6699 38.275 50.2914 36.9613 50.7612 35.5791C51.1052 34.5638 51.4492 33.554 51.6508 32.4941C51.8394 31.4992 52.1002 30.5172 52.128 29.4963C52.1354 29.1887 52.1557 28.883 52.2131 28.5773C52.3277 27.9603 52.2427 27.8658 51.6231 27.8658C46.202 27.8639 40.7809 27.8528 35.3599 27.875C34.1466 27.8806 33.0091 28.2808 31.9623 28.8848C30.8359 29.5352 29.8741 30.3745 29.1768 31.4936C28.5128 32.5608 27.9839 33.68 27.9487 34.9621C27.8803 37.3893 28.0393 39.824 27.786 42.2493ZM27.1941 52.3195C27.945 52.3473 28.8901 52.249 29.8408 52.149C31.1281 52.0119 32.4006 51.7895 33.6361 51.4394C34.8513 51.0947 36.0461 50.6741 37.2095 50.1498C38.7779 49.442 40.252 48.5953 41.6558 47.6096C41.7779 47.5243 41.8814 47.4539 41.8629 47.2872C41.8407 47.0945 41.6743 47.0852 41.5504 47.0778C41.0084 47.05 40.4961 46.8536 39.9671 46.7813C38.5541 46.5923 37.1577 46.3033 35.7372 46.1347C33.6269 45.8846 31.5221 45.6474 29.3988 45.6289C25.7533 45.5955 22.1134 45.6029 18.4808 46.0884C16.4704 46.357 14.4895 46.7776 12.4846 47.0704C12.3477 47.0908 12.1479 47.0574 12.0943 47.2482C12.0333 47.4669 12.2219 47.5206 12.3625 47.617C13.119 48.1395 13.8865 48.6379 14.6837 49.0992C15.9062 49.807 17.1861 50.3925 18.5086 50.8539C19.6738 51.2615 20.8649 51.6061 22.0967 51.8192C23.7206 52.1027 25.339 52.3454 27.1941 52.3195ZM27.4031 1.70932C25.8069 1.72229 24.5936 1.72044 23.3859 1.92425C22.2206 2.12065 21.0554 2.32261 19.9253 2.67094C18.9636 2.96739 18.0018 3.26755 17.0863 3.69741C16.4778 3.98275 15.8656 4.26067 15.2663 4.56083C15.0721 4.65903 14.9389 4.8332 15.1868 5.02219C15.4661 5.23526 15.7527 5.44093 16.0542 5.6225C17.2324 6.33585 18.4494 6.97693 19.7422 7.46237C20.778 7.85146 21.8341 8.18127 22.9161 8.39064C23.8778 8.57592 24.8526 8.6908 25.8402 8.74638C27.7286 8.85014 29.5948 8.72415 31.4314 8.31838C32.7724 8.02192 34.0855 7.59577 35.3395 7.01213C36.5085 6.4674 37.6478 5.87264 38.6835 5.0963C38.9924 4.8647 38.9832 4.72018 38.6577 4.53304C38.0344 4.17359 37.3593 3.92531 36.7064 3.62886C35.0325 2.8692 33.2699 2.40784 31.4814 2.05395C30.0147 1.76491 28.5221 1.65003 27.4031 1.70932ZM27.0443 22.0182C26.9167 22.0553 26.8963 22.1294 26.8612 22.1998C26.4006 23.1058 25.8495 23.9489 25.1577 24.6993C24.3791 25.5442 23.445 26.1778 22.4592 26.7429C22.3483 26.8059 22.1559 26.7689 22.1596 26.9616C22.1633 27.1413 22.3187 27.2043 22.4611 27.2729C23.1972 27.6268 23.8519 28.0974 24.4641 28.6384C25.4666 29.5259 26.2508 30.5783 26.8612 31.766C26.8945 31.8308 26.9333 31.9198 26.9906 31.9401C27.0813 31.9735 27.1053 31.8716 27.1368 31.8049C27.9524 30.1447 29.0991 28.7792 30.6731 27.7824C30.9709 27.5934 31.2354 27.3562 31.5831 27.2525C31.7255 27.2099 31.8087 27.0931 31.842 26.9505C31.8642 26.8541 31.7847 26.8134 31.7107 26.7893C30.9949 26.5558 30.4253 26.0704 29.8501 25.6294C29.2231 25.1495 28.6534 24.5881 28.1947 23.9174C27.773 23.3022 27.3495 22.6908 27.0443 22.0182ZM10.6054 27.8324C7.80334 27.8324 4.9994 27.838 2.19732 27.825C1.77932 27.8232 1.58512 27.9399 1.66465 28.379C1.8681 29.4963 1.88845 30.632 2.1104 31.7549C2.35454 32.9926 2.68376 34.2024 3.07587 35.3901C3.566 36.8705 4.23924 38.2842 5.0253 39.6331C6.19607 41.6416 7.60913 43.4629 9.25339 45.1138C9.87114 45.7345 10.389 46.055 11.3563 45.7437C12.7324 45.2991 14.2028 45.1583 15.6325 44.8859C17.0474 44.6172 18.4901 44.4431 19.9216 44.3356C21.8359 44.1911 23.7484 43.9372 25.6775 44.0095C26.0899 44.0243 26.2675 43.8946 26.273 43.4277C26.2989 41.347 26.0844 39.2718 26.1546 37.1929C26.1731 36.6223 26.162 36.0516 26.1546 35.4809C26.1362 34.0783 25.7163 32.798 24.9654 31.6233C24.3217 30.6172 23.5153 29.7779 22.5055 29.1257C21.3236 28.3623 20.0677 27.8454 18.6454 27.8398C15.9654 27.825 13.2854 27.8324 10.6054 27.8324ZM10.3372 26.226C12.725 26.226 15.1146 26.2279 17.5024 26.2242C18.27 26.2223 19.0209 26.1556 19.7866 26.0074C21.0776 25.7554 22.204 25.1903 23.1843 24.3824C24.9783 22.9039 26.0992 20.9936 26.1343 18.6294C26.1731 16.041 26.2249 13.4507 26.2675 10.8623C26.273 10.4936 26.1214 10.3454 25.794 10.3417C25.1448 10.3343 24.5104 10.2175 23.8704 10.1416C22.1836 9.94146 20.5597 9.48751 18.9913 8.87793C17.1196 8.14977 15.3588 7.1863 13.7682 5.94119C13.463 5.70218 13.217 5.71144 12.9137 5.91155C11.8761 6.59895 10.8976 7.36602 9.98581 8.20906C8.04932 10.0008 6.37548 12.0129 5.06414 14.316C4.35946 15.5555 3.73986 16.8358 3.25157 18.1754C2.90016 19.1389 2.62827 20.1246 2.36194 21.1177C1.97353 22.5704 1.8718 24.0563 1.6776 25.5293C1.58882 26.2093 1.64246 26.2223 2.33789 26.2223C5.00495 26.226 7.67201 26.226 10.3372 26.226Z" fill="#3876B9"/>
</svg>
